<?xml version="1.0" standalone="no"?>
<!DOCTYPE svg PUBLIC "-//W3C//DTD SVG 20010904//EN"
 "http://www.w3.org/TR/2001/REC-SVG-20010904/DTD/svg10.dtd">
<svg version="1.0" xmlns="http://www.w3.org/2000/svg"
 width="1024.000000pt" height="1024.000000pt" viewBox="0 0 1024.000000 1024.000000"
 preserveAspectRatio="xMidYMid meet">
<metadata>
Created by potrace 1.14, written by Peter Selinger 2001-2017
</metadata>
<g transform="translate(0.000000,1024.000000) scale(0.100000,-0.100000)"
fill="#000000" stroke="none">
<path d="M2487 9773 c-1 -1 -29 -3 -62 -4 -63 -3 -135 -17 -201 -40 -22 -7
-41 -13 -44 -14 -22 -3 -129 -61 -177 -96 -192 -141 -310 -321 -359 -544 -10
-49 -13 -863 -13 -4333 -1 -2349 1 -4272 3 -4272 3 0 83 46 178 101 95 56 214
125 263 154 50 29 331 193 625 365 294 172 550 321 568 331 17 11 47 27 65 38
17 10 311 181 652 381 341 199 638 372 660 385 22 12 92 53 155 90 63 38 161
95 218 128 l103 59 492 -288 c271 -158 506 -295 522 -304 17 -10 163 -95 325
-190 162 -95 309 -180 325 -190 17 -9 432 -252 923 -538 491 -287 895 -522
898 -522 2 0 4 1916 4 4257 0 3038 -3 4277 -11 4323 -37 220 -157 414 -342
553 -122 92 -203 126 -387 163 -29 6 -5378 13 -5383 7z m5192 -883 c16 -6 36
-22 44 -34 12 -18 14 -525 14 -3444 l0 -3422 -21 15 c-12 8 -28 18 -36 22 -8
3 -39 21 -68 40 -29 18 -54 33 -56 33 -2 0 -120 68 -262 151 -143 84 -353 207
-469 274 -115 67 -316 184 -445 260 -129 76 -250 146 -267 156 -18 11 -48 27
-65 38 -202 115 -479 277 -500 292 -15 11 -30 19 -33 19 -3 0 -42 22 -86 50
-44 27 -82 50 -85 50 -2 0 -53 29 -113 65 l-110 65 -183 -106 c-101 -59 -262
-153 -358 -209 -96 -56 -218 -127 -270 -157 -52 -31 -255 -149 -450 -263 -195
-114 -452 -264 -570 -333 -118 -69 -227 -132 -242 -141 -15 -9 -93 -55 -175
-102 -81 -47 -198 -115 -259 -151 l-111 -66 1 3429 c1 3131 2 3430 17 3444 9
9 32 22 50 28 52 18 5065 15 5108 -3z"/>
<path d="M3044 7457 c-40 -22 -40 -35 -38 -752 1 -379 2 -700 3 -712 0 -13 13
-30 27 -40 24 -15 82 -17 687 -17 l662 -1 2 -645 c1 -355 2 -657 2 -673 1 -19
10 -33 30 -45 26 -16 117 -17 1429 -17 l1402 0 22 23 23 22 0 703 c0 386 -1
712 -3 725 -3 13 -14 30 -27 38 -28 18 -85 25 -85 10 0 -7 -3 -7 -8 -1 -8 12
-401 13 -419 2 -7 -5 -13 -5 -13 0 0 10 -111 10 -128 -1 -6 -4 -12 -4 -12 1 0
4 -63 8 -140 8 -77 0 -140 -4 -140 -8 0 -5 -6 -5 -12 -1 -7 5 -98 8 -203 9
l-190 0 -2 630 c0 347 -2 646 -2 666 -1 20 -10 47 -20 60 l-19 24 -1407 0
c-773 0 -1413 -4 -1421 -8z"/>
</g>
</svg>
